<svg width="294" height="37" viewBox="0 0 294 37" fill="none" xmlns="http://www.w3.org/2000/svg">
<g clip-path="url(#clip0_2_954)">
<path d="M19.5867 0C20.291 0.0971447 20.9953 0.170003 21.6875 0.291434C25.9497 1.04431 29.5198 3.0722 32.3856 6.31441C34.9963 9.26518 36.5142 12.7381 36.9028 16.6603C37.3642 21.4326 36.1621 25.7798 33.272 29.617C30.5155 33.2721 26.8847 35.64 22.3918 36.575C16.8546 37.7286 11.7787 36.5871 7.26151 33.1628C3.63073 30.4063 1.37211 26.7391 0.400664 22.2947C0.230661 21.5297 0.182088 20.7525 0.0728004 19.9754C0.0606573 19.8418 0.0242281 19.7204 0.012085 19.5868C0.012085 18.8582 0.012085 18.1418 0.012085 17.4132C0.0363711 17.1582 0.0728004 16.891 0.0970866 16.636C0.534238 12.6531 2.05212 9.14375 4.73575 6.16869C7.58937 3.01149 11.1109 1.03216 15.3124 0.291434C16.0045 0.170003 16.7088 0.0971447 17.4131 0C18.1417 0 18.8582 0 19.5867 0ZM18.506 1.37217C9.08297 1.36003 1.38425 9.0466 1.37211 18.4818C1.35997 27.9048 9.04654 35.6035 18.4817 35.6157C27.9048 35.6278 35.6035 27.9412 35.6156 18.5061C35.6278 9.08303 27.9412 1.38431 18.506 1.37217Z" fill="#FEBF00"/>
<path d="M24.5654 9.3987C24.1769 9.3987 23.849 9.3987 23.4968 9.3987C23.4968 12.8838 23.4968 16.3567 23.4968 19.8539C23.169 19.8539 22.8654 19.8539 22.5497 19.8539C22.5497 16.3688 22.5497 12.9081 22.5497 9.41084C22.2097 9.41084 21.9061 9.41084 21.5539 9.41084C21.4689 10.1516 21.3597 10.8923 21.2868 11.6452C21.0682 14.1588 20.8496 16.6846 20.6675 19.1982C20.6189 19.8782 20.6796 20.5703 20.7525 21.2504C20.7768 21.5054 20.8982 21.7847 21.0561 22.0032C21.7118 22.914 22.574 23.5333 23.6547 23.8368C23.8976 23.9097 23.934 24.019 23.9218 24.2497C23.7761 26.909 23.6426 29.5684 23.509 32.2156C23.4968 32.4706 23.4726 32.7256 23.4847 32.9684C23.4847 33.1749 23.424 33.2842 23.2054 33.3449C20.5218 34.1706 17.826 34.3163 15.0817 33.6849C14.8631 33.6363 14.766 33.5634 14.7538 33.3206C14.596 30.0541 14.4259 26.7755 14.2559 23.509C14.2438 23.3875 14.2559 23.2661 14.2559 23.1325C14.4381 23.0597 14.6081 22.9868 14.7902 22.9261C16.211 22.5132 17.146 21.5418 17.7774 20.2668C18.7003 18.3724 19.0039 16.3688 18.4939 14.3045C18.081 12.6166 17.1703 11.2445 15.7495 10.2366C13.9888 8.98584 12.0095 9.10727 10.3216 10.6009C8.62155 12.0945 7.78367 13.9888 7.8201 16.2474C7.84439 17.8017 8.16011 19.271 8.96155 20.6311C9.65371 21.8089 10.6009 22.6347 11.9245 22.999C12.228 23.084 12.3009 23.2175 12.2766 23.5333C12.1309 26.1319 11.9973 28.7305 11.8638 31.3291C11.8395 31.7177 11.8152 32.1184 11.7909 32.5191C6.80008 30.297 2.23428 24.3954 2.98715 16.9153C3.74002 9.43513 9.73871 3.67931 16.9639 2.98715C24.8204 2.22214 31.6813 7.33438 33.5756 14.4988C35.4942 21.7361 32.0091 28.7305 26.3383 31.9606C26.314 31.5113 26.2776 31.0984 26.2533 30.6734C26.144 28.5484 26.0469 26.4112 25.9255 24.2861C25.9133 24.0433 25.9619 23.934 26.2169 23.8611C27.2248 23.5818 28.0262 22.9868 28.6941 22.1975C29.0705 21.7482 29.192 21.2261 29.1798 20.6918C29.1555 19.1739 29.1434 17.656 29.0219 16.1503C28.8398 13.9645 28.5727 11.7909 28.3298 9.61728C28.3176 9.55656 28.3176 9.50799 28.3055 9.43513C28.0626 9.43513 27.8441 9.43513 27.5769 9.43513C27.5769 12.9081 27.5769 16.381 27.5769 19.8782C27.2369 19.8782 26.9455 19.8782 26.6055 19.8782C26.6055 16.4053 26.6055 12.9323 26.6055 9.43513C26.229 9.43513 25.9012 9.43513 25.5247 9.43513C25.5247 12.8959 25.5247 16.3688 25.5247 19.8782C25.1969 19.8782 24.9054 19.8782 24.5654 19.8782C24.5654 16.381 24.5654 12.9081 24.5654 9.3987Z" fill="#FEBF00"/>
<path d="M8.80371 17.316C8.88871 16.0531 9.10729 14.9845 9.72659 14.0495C9.79944 13.9402 9.95731 13.8795 10.0666 13.8066C10.0909 13.9402 10.1637 14.0981 10.1273 14.2195C9.42301 16.891 9.98159 19.271 11.6573 21.4325C11.7302 21.5175 11.7302 21.6511 11.7666 21.7604C11.6452 21.7482 11.4873 21.7968 11.4023 21.7239C10.9652 21.4082 10.4916 21.1168 10.1516 20.7161C9.28943 19.7082 8.88871 18.4939 8.80371 17.316Z" fill="#FEBF00"/>
</g>
<path d="M55.2759 28L50.5826 20.1778H48.819V28H44.8084V7.91822H52.4599C54.7924 7.91822 56.5654 8.48711 57.779 9.62489C59.0116 10.7627 59.6279 12.2607 59.6279 14.1191C59.6279 15.6361 59.2012 16.9067 58.3479 17.9307C57.5135 18.9547 56.2999 19.6373 54.707 19.9787L59.7132 28H55.2759ZM48.819 17.4187H52.1186C54.4131 17.4187 55.5604 16.4041 55.5604 14.3751C55.5604 13.408 55.2759 12.659 54.707 12.128C54.1571 11.5781 53.2943 11.3031 52.1186 11.3031H48.819V17.4187ZM77.1557 19.5236C77.1557 19.9218 77.1083 20.3769 77.0135 20.8889H65.465C65.5219 22.2921 65.9012 23.3256 66.6028 23.9893C67.3044 24.653 68.1767 24.9849 69.2197 24.9849C70.1489 24.9849 70.9169 24.7573 71.5237 24.3022C72.1495 23.8471 72.5477 23.2308 72.7184 22.4533H76.9566C76.748 23.5532 76.3024 24.5393 75.6197 25.4116C74.937 26.2839 74.0553 26.9665 72.9744 27.4596C71.9124 27.9526 70.7273 28.1991 69.4188 28.1991C67.8828 28.1991 66.5175 27.8767 65.3228 27.232C64.1281 26.5683 63.199 25.6296 62.5352 24.416C61.8715 23.2024 61.5397 21.7707 61.5397 20.1209C61.5397 18.4711 61.8715 17.0394 62.5352 15.8258C63.199 14.5932 64.1281 13.6545 65.3228 13.0098C66.5175 12.365 67.8828 12.0427 69.4188 12.0427C70.9738 12.0427 72.3296 12.365 73.4864 13.0098C74.6621 13.6545 75.5628 14.5458 76.1886 15.6836C76.8333 16.8024 77.1557 18.0824 77.1557 19.5236ZM73.1166 19.1253C73.1735 17.8359 72.8321 16.8593 72.0926 16.1956C71.372 15.5319 70.4807 15.2 69.4188 15.2C68.3379 15.2 67.4277 15.5319 66.6881 16.1956C65.9486 16.8593 65.5409 17.8359 65.465 19.1253H73.1166ZM85.4357 12.0427C87.351 12.0427 88.887 12.5262 90.0437 13.4933C91.2004 14.4604 91.921 15.7499 92.2055 17.3618H88.4508C88.2991 16.6033 87.9578 15.9964 87.4268 15.5413C86.8958 15.0862 86.2037 14.8587 85.3504 14.8587C84.6677 14.8587 84.1367 15.0199 83.7575 15.3422C83.3782 15.6646 83.1886 16.1007 83.1886 16.6507C83.1886 17.0868 83.3403 17.4376 83.6437 17.7031C83.9471 17.9686 84.3264 18.1772 84.7815 18.3289C85.2366 18.4806 85.8908 18.6607 86.7441 18.8693C87.9388 19.1348 88.9059 19.4193 89.6455 19.7227C90.404 20.0071 91.0487 20.4717 91.5797 21.1164C92.1296 21.7422 92.4046 22.5956 92.4046 23.6764C92.4046 25.0228 91.8736 26.1132 90.8117 26.9476C89.7687 27.7819 88.356 28.1991 86.5735 28.1991C84.5255 28.1991 82.8852 27.744 81.6526 26.8338C80.42 25.9046 79.671 24.5867 79.4055 22.88H83.2455C83.3403 23.6575 83.6816 24.2738 84.2695 24.7289C84.8573 25.165 85.6253 25.3831 86.5735 25.3831C87.2561 25.3831 87.7776 25.2219 88.1379 24.8996C88.4982 24.5582 88.6784 24.1221 88.6784 23.5911C88.6784 23.136 88.5172 22.7662 88.1948 22.4818C87.8914 22.1973 87.5027 21.9793 87.0286 21.8276C86.5735 21.6759 85.9192 21.4957 85.0659 21.2871C83.8902 21.0216 82.9326 20.7561 82.193 20.4907C81.4724 20.2062 80.8467 19.7606 80.3157 19.1538C79.8037 18.547 79.5477 17.7126 79.5477 16.6507C79.5477 15.2853 80.0692 14.176 81.1121 13.3227C82.1551 12.4693 83.5963 12.0427 85.4357 12.0427ZM103.811 24.5582V28H101.706C99.9428 28 98.587 27.5733 97.6388 26.72C96.7096 25.8667 96.245 24.4444 96.245 22.4533V15.6267H94.0548V12.2418H96.245V8.34489H100.256V12.2418H103.783V15.6267H100.256V22.5102C100.256 23.2687 100.407 23.7997 100.711 24.1031C101.014 24.4065 101.526 24.5582 102.247 24.5582H103.811ZM112.87 12.0427C114.197 12.0427 115.335 12.3556 116.283 12.9813C117.231 13.6071 117.904 14.451 118.303 15.5129V12.2418H122.285V28H118.303V24.7004C117.904 25.7624 117.231 26.6157 116.283 27.2604C115.335 27.8862 114.197 28.1991 112.87 28.1991C111.542 28.1991 110.348 27.8767 109.286 27.232C108.224 26.5873 107.389 25.6581 106.783 24.4444C106.195 23.2119 105.901 21.7707 105.901 20.1209C105.901 18.4711 106.195 17.0394 106.783 15.8258C107.389 14.5932 108.224 13.6545 109.286 13.0098C110.348 12.365 111.542 12.0427 112.87 12.0427ZM114.121 15.5413C112.87 15.5413 111.865 15.949 111.106 16.7644C110.348 17.5799 109.968 18.6987 109.968 20.1209C109.968 21.5431 110.348 22.6619 111.106 23.4773C111.865 24.2738 112.87 24.672 114.121 24.672C115.335 24.672 116.33 24.2643 117.108 23.4489C117.904 22.6145 118.303 21.5052 118.303 20.1209C118.303 18.7176 117.904 17.6083 117.108 16.7929C116.33 15.9585 115.335 15.5413 114.121 15.5413ZM140.995 12.2418V28H136.984V24.8142C136.567 25.8761 135.875 26.7105 134.908 27.3173C133.96 27.9052 132.86 28.1991 131.608 28.1991C129.788 28.1991 128.337 27.6018 127.256 26.4071C126.175 25.2124 125.635 23.5437 125.635 21.4009V12.2418H129.617V20.9458C129.617 22.1973 129.94 23.1739 130.584 23.8756C131.229 24.5582 132.101 24.8996 133.201 24.8996C134.358 24.8996 135.278 24.5298 135.96 23.7902C136.643 23.0507 136.984 21.9887 136.984 20.6044V12.2418H140.995ZM147.486 15.5413C147.998 14.4604 148.747 13.6261 149.733 13.0382C150.719 12.4314 151.895 12.128 153.26 12.128V14.944H152.464C151.004 14.944 149.809 15.3233 148.88 16.0818C147.951 16.8213 147.486 18.0539 147.486 19.7796V28H144.898V12.384H147.486V15.5413ZM162.214 12.1849C163.731 12.1849 165.011 12.5641 166.054 13.3227C167.116 14.0812 167.856 15.0957 168.273 16.3662V12.384H170.861V28H168.273V24.0178C167.856 25.2883 167.116 26.3028 166.054 27.0613C165.011 27.8199 163.731 28.1991 162.214 28.1991C160.83 28.1991 159.597 27.8767 158.517 27.232C157.436 26.5873 156.582 25.6676 155.957 24.4729C155.35 23.2593 155.046 21.837 155.046 20.2062C155.046 18.5754 155.35 17.1532 155.957 15.9396C156.582 14.7259 157.436 13.7967 158.517 13.152C159.597 12.5073 160.83 12.1849 162.214 12.1849ZM162.954 14.4889C161.361 14.4889 160.081 15.0009 159.114 16.0249C158.166 17.0299 157.692 18.4237 157.692 20.2062C157.692 21.9887 158.166 23.392 159.114 24.416C160.081 25.421 161.361 25.9236 162.954 25.9236C163.978 25.9236 164.888 25.6865 165.685 25.2124C166.5 24.7384 167.135 24.0747 167.59 23.2213C168.045 22.349 168.273 21.344 168.273 20.2062C168.273 19.0684 168.045 18.0634 167.59 17.1911C167.135 16.3188 166.5 15.6551 165.685 15.2C164.888 14.7259 163.978 14.4889 162.954 14.4889ZM183.201 12.128C185.022 12.128 186.492 12.7159 187.61 13.8916C188.729 15.0483 189.289 16.7265 189.289 18.9262V28H186.7V19.1538C186.7 17.5988 186.302 16.4041 185.505 15.5698C184.709 14.7354 183.628 14.3182 182.263 14.3182C180.841 14.3182 179.703 14.7828 178.849 15.712C177.996 16.6222 177.569 17.9591 177.569 19.7227V28H174.981V12.384H177.569V16.0818C177.968 14.8113 178.669 13.8347 179.674 13.152C180.698 12.4693 181.874 12.128 183.201 12.128ZM200.711 25.7244V28H198.777C197.184 28 195.989 27.6207 195.193 26.8622C194.416 26.1037 194.027 24.8332 194.027 23.0507V14.6311H191.694V12.384H194.027V8.48711H196.644V12.384H200.683V14.6311H196.644V23.1076C196.644 24.1126 196.824 24.8047 197.184 25.184C197.563 25.5443 198.208 25.7244 199.118 25.7244H200.711Z" fill="white"/>
<defs>
<clipPath id="clip0_2_954">
<rect width="36.9879" height="37" fill="white"/>
</clipPath>
</defs>
</svg>
